<svg viewBox="0 0 32 32" fill="none" xmlns="http://www.w3.org/2000/svg" id="Times--Streamline-Unicons.svg" height="32" width="32"><desc>Times Streamline Icon: https://streamlinehq.com</desc><path d="m19.681199999999997 15.997733333333333 11.226533333333332 -11.200266666666666c0.49160000000000004 -0.49160000000000004 0.7678666666666666 -1.1583999999999999 0.7678666666666666 -1.8537333333333335s-0.27626666666666666 -1.362 -0.7678666666666666 -1.8536000000000001c-0.49160000000000004 -0.49160000000000004 -1.1583999999999999 -0.7678666666666666 -1.8537333333333335 -0.7678666666666666s-1.362 0.27626666666666666 -1.8536000000000001 0.7678666666666666L16 12.316533333333332 4.7996 1.0901333333333332C4.308 0.5985333333333334 3.6412 0.32226666666666665 2.9459999999999997 0.32226666666666665S1.5838666666666665 0.5985333333333334 1.0922666666666667 1.0901333333333332c-0.49160000000000004 0.49160000000000004 -0.7678666666666666 1.1583999999999999 -0.7678666666666666 1.8536000000000001s0.27626666666666666 1.3621333333333334 0.7678666666666666 1.8537333333333335l11.226533333333332 11.200266666666666 -11.226533333333332 11.200399999999998c-0.24466666666666664 0.24280000000000002 -0.4389333333333333 0.5314666666666666 -0.5714666666666666 0.8497333333333332 -0.13253333333333334 0.31799999999999995 -0.2008 0.6593333333333333 -0.2008 1.0038666666666667 0 0.3449333333333333 0.06826666666666667 0.6861333333333333 0.2008 1.0041333333333333 0.13253333333333334 0.31826666666666664 0.3268 0.6070666666666666 0.5714666666666666 0.8495999999999999 0.24266666666666664 0.24493333333333334 0.5314666666666666 0.4390666666666666 0.8495999999999999 0.5714666666666666 0.3181333333333333 0.13266666666666665 0.6594666666666666 0.2008 1.0041333333333333 0.2008s0.6858666666666666 -0.06813333333333332 1.004 -0.2008c0.3181333333333333 -0.1324 0.6069333333333333 -0.32653333333333334 0.8495999999999999 -0.5714666666666666L16 19.678933333333333l11.200399999999998 11.226533333333332c0.24280000000000002 0.24493333333333334 0.5316 0.4390666666666666 0.8495999999999999 0.5714666666666666 0.3181333333333333 0.13266666666666665 0.6594666666666666 0.2008 1.004 0.2008s0.6858666666666666 -0.06813333333333332 1.0041333333333333 -0.2008c0.31799999999999995 -0.1324 0.6068 -0.32653333333333334 0.8495999999999999 -0.5714666666666666 0.24466666666666664 -0.24253333333333332 0.4389333333333333 -0.5313333333333333 0.5714666666666666 -0.8495999999999999 0.13266666666666665 -0.31799999999999995 0.2008 -0.6592 0.2008 -1.0041333333333333 0 -0.34453333333333336 -0.06813333333333332 -0.6858666666666666 -0.2008 -1.0038666666666667 -0.13253333333333334 -0.31826666666666664 -0.3268 -0.6069333333333333 -0.5714666666666666 -0.8497333333333332l-11.226533333333332 -11.200399999999998Z" fill="#000000" stroke-width="1"></path></svg>