<svg xmlns="http://www.w3.org/2000/svg" fill="none" viewBox="0 0 48 48" id="Mnz--Streamline-Cryptocurrency-Black.svg" height="48" width="48"><desc>Mnz Streamline Icon: https://streamlinehq.com</desc><path fill="#000000" d="M24 47.52C11.0096 47.52 0.48000000000000004 36.9904 0.48000000000000004 24S11.0096 0.48000000000000004 24 0.48000000000000004 47.52 11.0096 47.52 24 36.9904 47.52 24 47.52Zm14.066472727272728 -15.705454545454545c-0.19403636363636362 -1.1584 -0.5792 -2.3182545454545456 -0.8673454545454546 -3.381090909090909l-0.8673454545454546 -3.476509090909091 -2.3137454545454545 -8.693527272727273c-0.19403636363636362 -0.6762181818181818 -0.2896 -1.3524363636363637 -0.4821818181818182 -2.0286545454545455 -0.09701818181818181 -0.2896 -0.19258181818181816 -0.6762181818181818 -0.4821818181818182 -0.8688000000000001 -0.28945454545454546 -0.09701818181818181 -0.5790545454545455 -0.09701818181818181 -0.8672 -0.09701818181818181h-3.5677090909090907c-0.5777454545454546 0 -1.0584727272727272 0 -1.6376727272727272 0.09701818181818181 -0.4820363636363636 0.09556363636363636 -0.9642181818181819 0.3866181818181818 -1.1568 0.8688000000000001 -0.04334545454545455 0.10341818181818181 -0.048 0.21890909090909091 -0.0128 0.3253818181818182 0.035054545454545456 0.10647272727272727 0.10749090909090908 0.1965090909090909 0.2039272727272727 0.25381818181818183 0.09701818181818181 0.09701818181818181 0.29105454545454545 0 0.3866181818181818 -0.09556363636363636 0.09701818181818181 0 0.38647272727272725 -0.2896 0.4820363636363636 -0.2896l4.530618181818181 16.70952727272727v0.09701818181818181c0.09701818181818181 0.3866181818181818 0.2896 0.7717818181818181 0.5777454545454546 0.8688000000000001 0.19403636363636362 0.09701818181818181 0.3866181818181818 0.19403636363636362 0.6762181818181818 0.19403636363636362h4.818618181818183c0.2896 0.09556363636363636 0.6762181818181818 -0.09701818181818181 0.5792 -0.4836363636363637Zm-11.1824 0c-0.19243636363636366 -1.1584 -0.5776 -2.3182545454545456 -0.8672 -3.381090909090909l-0.8673454545454546 -3.476509090909091 -2.3137454545454545 -8.693527272727273c-0.19258181818181816 -0.6762181818181818 -0.2896 -1.3524363636363637 -0.4821818181818182 -2.0286545454545455 -0.09556363636363636 -0.2896 -0.19258181818181816 -0.6762181818181818 -0.4821818181818182 -0.8688000000000001 -0.28814545454545454 -0.09701818181818181 -0.5777454545454546 -0.09701818181818181 -0.8672 -0.09701818181818181h-3.5677090909090907c-0.5777454545454546 0 -1.0584727272727272 0 -1.6376727272727272 0.09701818181818181 -0.4821818181818182 0.09556363636363636 -0.9642181818181819 0.3866181818181818 -1.1568 0.8688000000000001 -0.0432 0.10356363636363637 -0.047709090909090916 0.2192 -0.012218181818181817 0.3256727272727273 0.03534545454545455 0.10647272727272727 0.10821818181818181 0.1965090909090909 0.2048 0.25352727272727277 0.09701818181818181 0.09701818181818181 0.28945454545454546 0 0.38647272727272725 -0.09556363636363636 0.09556363636363636 0 0.3851636363636363 -0.2896 0.4821818181818182 -0.2896l4.529163636363636 16.70952727272727v0.09701818181818181c0.09701818181818181 0.3866181818181818 0.2896 0.7717818181818181 0.5792 0.8688000000000001 0.19258181818181816 0.09701818181818181 0.3850181818181818 0.19403636363636362 0.6746181818181818 0.19403636363636362h4.8202181818181815c0.28814545454545454 0.09556363636363636 0.6747636363636363 -0.09701818181818181 0.5777454545454546 -0.4836363636363637Zm-8.868509090909091 -3.6705454545454543 -3.083927272727273 -12.073163636363637c0 -0.19403636363636362 -0.19258181818181816 -0.3866181818181818 -0.4821818181818182 -0.3866181818181818 -0.19258181818181816 0 -0.3851636363636363 0.19258181818181816 -0.4821818181818182 0.3866181818181818L9.918836363636364 31.330909090909092v0.19403636363636362c0 0.4821818181818182 0.3851636363636363 0.9658181818181819 0.9643636363636364 0.9658181818181819h5.108218181818182c0.19781818181818184 -0.005381818181818182 0.3888 -0.07389090909090909 0.5450181818181818 -0.19534545454545454 0.15607272727272728 -0.12174545454545455 0.26894545454545454 -0.2901818181818182 0.32232727272727274 -0.4808727272727273l1.1568 -3.6705454545454543Zm11.374981818181817 -0.2896 -3.3736727272727274 -12.171636363636365c0 -0.19112727272727273 -0.19258181818181816 -0.28814545454545454 -0.3851636363636363 -0.28814545454545454 -0.19403636363636362 0 -0.3866181818181818 0.09556363636363636 -0.3866181818181818 0.2896l-0.6747636363636363 2.413818181818182 3.3736727272727274 11.784872727272727c0.09701818181818181 0.19258181818181816 0.19403636363636362 0.2896 0.3866181818181818 0.2896 0.19112727272727273 0 0.28814545454545454 -0.09701818181818181 0.3851636363636363 -0.2896l0.6747636363636363 -2.028509090909091Z" stroke-width="1"></path></svg>