<svg xmlns="http://www.w3.org/2000/svg" fill="none" viewBox="0 0 48 48" id="Google-Mail-Logo--Streamline-Logos.svg" height="48" width="48"><desc>Google Mail Logo Streamline Icon: https://streamlinehq.com</desc><path fill="#000000" fill-rule="evenodd" d="M2 13A5 5 0 0 1 7 8h1.564a5 5 0 0 1 2.884 0.916l2.552 1.8v15.028L2 16.874V13Zm0 7.604V40h12v-10.526l-12 -8.87Zm32 8.87V40h12v-19.396l-12 8.87Zm12 -12.6V13A5 5 0 0 0 41 8h-1.564a5 5 0 0 0 -2.884 0.916l-2.552 1.8v15.028l12 -8.87Zm-15 -4.04L24 17.776l-7 -4.94v15.124l7 5.174 7 -5.174V12.834Z" clip-rule="evenodd" stroke-width="1"></path></svg>