<svg xmlns="http://www.w3.org/2000/svg" viewBox="0 0 48 48" id="Online-Learning-Certificate-2--Streamline-Ultimate.svg" height="48" width="48"><desc>Online Learning Certificate 2 Streamline Icon: https://streamlinehq.com</desc><g><path d="M47.26 22.74A5.46 5.46 0 0 0 42.78 20a5.48 5.48 0 0 0 -9.22 0 5.4 5.4 0 0 0 -4.48 2.72 5.46 5.46 0 0 0 -0.14 5.28 5.42 5.42 0 0 0 0.14 5.24 5.22 5.22 0 0 0 2 2v11.76a0.98 0.98 0 0 0 0.58 0.9 0.94 0.94 0 0 0 1.06 -0.14l5.36 -4.46 5.36 4.46a1 1 0 0 0 1.64 -0.76v-11.72a5.28 5.28 0 0 0 2.1 -2 5.38 5.38 0 0 0 0.2 -5.28 5.42 5.42 0 0 0 -0.12 -5.26Zm-2.6 9a2.46 2.46 0 0 1 -2.54 1.22 1.5 1.5 0 0 0 -1.62 0.94 2.5 2.5 0 0 1 -4.66 0 1.5 1.5 0 0 0 -1.4 -0.96h-0.22a2.48 2.48 0 0 1 -2.32 -4 1.5 1.5 0 0 0 0 -1.88 2.48 2.48 0 0 1 2.32 -4 1.48 1.48 0 0 0 1.62 -0.94 2.48 2.48 0 0 1 2.32 -1.6 2.44 2.44 0 0 1 2.32 1.6 1.52 1.52 0 0 0 1.64 0.94 2.48 2.48 0 0 1 2.32 4 1.5 1.5 0 0 0 0 1.88 2.44 2.44 0 0 1 0.22 2.8Z" fill="#000000" stroke-width="1"></path><path d="M42 0H6a6 6 0 0 0 -6 6v32a6 6 0 0 0 6 6h22.16v-4H6a2 2 0 0 1 -2 -2V10.5A0.5 0.5 0 0 1 4.5 10h39a0.5 0.5 0 0 1 0.5 0.5v6.32l0.4 0.4a8.4 8.4 0 0 1 3.6 1.8V6a6 6 0 0 0 -6 -6ZM8.7 6a2 2 0 0 1 -3.4 0 2 2 0 0 1 -0.3 -1 2.24 2.24 0 0 1 0.18 -0.82A2 2 0 0 1 8.7 4a1.82 1.82 0 0 1 0 2Zm7 0a2 2 0 0 1 -3.4 0 1.82 1.82 0 0 1 0 -2 2 2 0 0 1 3.4 0 1.82 1.82 0 0 1 0 2Zm7 0a2 2 0 0 1 -3.4 0 1.82 1.82 0 0 1 0 -2 2 2 0 0 1 3.4 0 1.82 1.82 0 0 1 0 2Z" fill="#000000" stroke-width="1"></path><path d="M34.16 28a4 4 0 1 0 8 0 4 4 0 1 0 -8 0" fill="#000000" stroke-width="1"></path></g></svg>