<svg xmlns="http://www.w3.org/2000/svg" viewBox="0 0 48 48" id="Video-Game-Monitor--Streamline-Ultimate.svg" height="48" width="48"><desc>Video Game Monitor Streamline Icon: https://streamlinehq.com</desc><g><path d="M27.5 18a1.5 1.5 0 1 0 3 0 1.5 1.5 0 1 0 -3 0" fill="#000000" stroke-width="1"></path><path d="M33.5 18a1.5 1.5 0 1 0 3 0 1.5 1.5 0 1 0 -3 0" fill="#000000" stroke-width="1"></path><path d="M45 0h-42A3 3 0 0 0 0 3V36a3 3 0 0 0 3 3h18a1 1 0 0 1 1 1v3a1 1 0 0 1 -1 1h-6a2 2 0 0 0 0 4h18a2 2 0 0 0 0 -4h-6a1 1 0 0 1 -1 -1V40a1 1 0 0 1 1 -1h18A3 3 0 0 0 48 36V3A3 3 0 0 0 45 0ZM44 30a1 1 0 0 1 -1 1h-38A1 1 0 0 1 4 30V5a1 1 0 0 1 1 -1h38a1 1 0 0 1 1 1Z" fill="#000000" stroke-width="1"></path><path d="M21.7 18.7a1 1 0 0 1 0 -1.4l4.92 -4.92a0.98 0.98 0 0 0 0.28 -0.76 1 1 0 0 0 -0.38 -0.72 8.88 8.88 0 0 0 -5.52 -2 9 9 0 0 0 0 18 8.88 8.88 0 0 0 5.52 -1.9 1 1 0 0 0 0.38 -0.72 0.98 0.98 0 0 0 -0.28 -0.76ZM18 16.5a1.5 1.5 0 1 1 1.5 -1.5 1.52 1.52 0 0 1 -1.5 1.5Z" fill="#000000" stroke-width="1"></path></g></svg>