<svg xmlns="http://www.w3.org/2000/svg" fill="none" viewBox="0 0 48 48" id="Amazon-Web-Service-Sagemaker--Streamline-Ultimate.svg" height="48" width="48"><desc>Amazon Web Service Sagemaker Streamline Icon: https://streamlinehq.com</desc><path fill="#000000" fill-rule="evenodd" d="m8.31038 5.34494 5.12786 -2.6547v4.92598c0 0.82842 0.67156 1.5 1.5 1.5 0.82842 0 1.5 -0.67158 1.5 -1.5V1.137144l1.87214 -0.969209c0.52532 -0.2719572 1.1614 -0.2097824 1.62412 0.158749L22.5 2.37v12.00834L19.33948 17.53886c-0.58578 0.58578 -0.58578 1.53554 0 2.12132 0.5858 0.58582 1.53552 0.58582 2.12132 0l2.6264 -2.6264 3.6938 2.99762c-0.1818 0.4886 -0.281 1.017 -0.281 1.5686 0 2.4854 2.0148 4.5 4.5 4.5s4.5 -2.0146 4.5 -4.5c0 -2.48518 -2.0148 -4.4999 -4.5 -4.4999 -0.8386 0 -1.6236 0.22936 -2.2956 0.62876L25.5 14.31672V2.37L28.0654 0.326686c0.4628 -0.3685332 1.0988 -0.4307082 1.6242 -0.1587512l10 5.1770052c0.4978 0.25772 0.8104 0.7715 0.8104 1.33208v6.0136l6.392 4.72728c0.3824 0.28286 0.608 0.73034 0.608 1.20602v9.95568c0 0.4958 -0.2448 0.9594 -0.6542 1.239l-6.3458 4.332v7.1724c0 0.5606 -0.3126 1.0744 -0.8104 1.332l-10 5.177c-0.5254 0.272 -1.1614 0.2098 -1.6242 -0.1586L25.5 45.63v-12.1304H32c0.8284 0 1.5 -0.6716 1.5 -1.5 0 -0.8286 -0.6716 -1.5 -1.5 -1.5h-6.5v-4.609h-0.0038c-0.02 -0.2772 -0.117 -0.5522 -0.2962 -0.791 -0.497 -0.6628 -1.4374 -0.797 -2.1 -0.3l-4.1022 3.0766 -3.49782 -3.4978V15.99972c0 -0.51488 -0.26406 -0.99376 -0.69948 -1.26854L7.5 10.12418V6.67702c0 -0.56058 0.31256 -1.07436 0.81038 -1.33208Zm-1.52608 7.87498L1.10807 17.4179C0.72562 17.70076 0.5 18.14824 0.5 18.62392v8.60068l5.43302 -3.8484c0.67602 -0.4788 1.61222 -0.319 2.09108 0.357 0.47884 0.676 0.319 1.6122 -0.35702 2.091l-6.067822 4.298L7.5 34.1506v7.1724c0 0.5606 0.31256 1.0744 0.81038 1.332l1.84528 0.9554 5.90064 -4.7768c0.64388 -0.5212 1.58842 -0.4218 2.10966 0.2222 0.52124 0.6438 0.42182 1.5884 -0.22208 2.1096L13.06382 45.116l5.24656 2.716c0.52532 0.272 1.1614 0.2098 1.62412 -0.1586L22.5 45.63v-16.6304l-5.60004 4.2c-0.66274 0.497 -1.60294 0.3628 -2.1 -0.3 -0.49706 -0.6628 -0.36274 -1.603 0.3 -2.1l1.47348 -1.1052 -3.63412 -3.634c-0.2813 -0.2814 -0.43934 -0.6628 -0.43934 -1.0606V16.82684L6.7843 13.21992ZM32 20.1c-0.8284 0 -1.5 0.6716 -1.5 1.5 0 0.8286 0.6716 1.5 1.5 1.5s1.5 -0.6714 1.5 -1.5c0 -0.8284 -0.6716 -1.5 -1.5 -1.5Zm2.6612 -10.85994c0 1.24564 -1.0098 2.25542 -2.2554 2.25542 -1.2458 0 -2.2556 -1.00978 -2.2556 -2.25542s1.0098 -2.25544 2.2556 -2.25544c1.2456 0 2.2554 1.0098 2.2554 2.25544Zm6.8442 18.17974c1.2456 0 2.2554 -1.0098 2.2554 -2.2554 0 -1.2456 -1.0098 -2.2554 -2.2554 -2.2554 -1.2458 0 -2.2556 1.0098 -2.2556 2.2554 0 1.2456 1.0098 2.2554 2.2556 2.2554Zm-7.25 12.8054c0 1.2456 -1.0096 2.2554 -2.2554 2.2554 -1.2456 0 -2.2554 -1.0098 -2.2554 -2.2554 0 -1.2456 1.0098 -2.2554 2.2554 -2.2554 1.2458 0 2.2554 1.0098 2.2554 2.2554Z" clip-rule="evenodd" stroke-width="1"></path></svg>