<svg xmlns="http://www.w3.org/2000/svg" fill="none" viewBox="-1 -1 48 48" id="Presentation-2--Streamline-Cyber.svg" height="48" width="48"><desc>Presentation 2 Streamline Icon: https://streamlinehq.com</desc><path fill="#ffffffb3" d="M29.708333333333336 45.04166666666667v-3.8333333333333335l-5.75 -1.9166666666666667 -5.75 1.9166666666666667v3.8333333333333335h11.5Z" stroke-width="2"></path><path fill="#ffffffb3" d="m27.791666666666668 35.458333333333336 -3.8333333333333335 1.9166666666666667 -3.8333333333333335 -1.9166666666666667V30.666666666666668l3.8333333333333335 -1.9166666666666667 3.8333333333333335 1.9166666666666667v4.791666666666667Z" stroke-width="2"></path><path fill="#ffffffb3" d="M45.04166666666667 45.04166666666667v-3.8333333333333335l-5.75 -1.9166666666666667 -5.75 1.9166666666666667v3.8333333333333335h11.5Z" stroke-width="2"></path><path fill="#ffffffb3" d="m43.125 35.458333333333336 -3.8333333333333335 1.9166666666666667 -3.8333333333333335 -1.9166666666666667V30.666666666666668l3.8333333333333335 -1.9166666666666667 3.8333333333333335 1.9166666666666667v4.791666666666667Z" stroke-width="2"></path><path fill="#ffffffb3" d="M16.291666666666668 0.9583333333333334v14.543666666666667l-9.583333333333334 -1.127 -5.75 1.4375V45.04166666666667l5.75 -11.5 5.75 11.5v-23l3.8333333333333335 -2.091083333333333V22.041666666666668h28.75V0.9583333333333334h-28.75Z" stroke-width="2"></path><path fill="#ffffffb3" d="m2.875 10.541666666666668 3.8333333333333335 1.9166666666666667 3.8333333333333335 -1.9166666666666667v-5.75l-3.8333333333333335 -1.9166666666666667 -3.8333333333333335 1.9166666666666667v5.75Z" stroke-width="2"></path><path fill="#000000d9" d="M45.04166666666667 0.9583333333333334v21.083333333333336h-28.75" stroke-width="2"></path><path fill="#000000d9" d="m0.9583333333333334 45.04166666666667 5.75 -11.5 5.75 11.5v-15.333333333333334h-11.5v15.333333333333334Z" stroke-width="2"></path><path fill="#000000d9" d="M27.791666666666668 35.458333333333336V30.666666666666668l-3.8333333333333335 -1.9166666666666667v8.625l3.8333333333333335 -1.9166666666666667Z" stroke-width="2"></path><path fill="#000000d9" d="M23.958333333333336 45.04166666666667h5.75v-3.8333333333333335l-5.75 -1.9166666666666667v5.75Z" stroke-width="2"></path><path fill="#000000d9" d="M43.125 35.458333333333336V30.666666666666668l-3.8333333333333335 -1.9166666666666667v8.625l3.8333333333333335 -1.9166666666666667Z" stroke-width="2"></path><path fill="#000000d9" d="M39.29166666666667 45.04166666666667h5.75v-3.8333333333333335l-5.75 -1.9166666666666667v5.75Z" stroke-width="2"></path><path fill="#000000d9" d="m10.541666666666668 5.75 -7.666666666666667 1.9166666666666667V4.791666666666667l3.8333333333333335 -1.9166666666666667 3.8333333333333335 1.9166666666666667V5.75Z" stroke-width="2"></path><path stroke="#000000" stroke-linecap="round" stroke-linejoin="round" d="M16.291666666666668 10.541666666666668v-9.583333333333334h28.75v21.083333333333336h-23" stroke-width="2"></path><path stroke="#000000" stroke-linecap="round" stroke-linejoin="round" d="m2.875 10.541666666666668 3.8333333333333335 1.9166666666666667 3.8333333333333335 -1.9166666666666667v-5.75l-3.8333333333333335 -1.9166666666666667 -3.8333333333333335 1.9166666666666667v5.75Z" stroke-width="2"></path><path stroke="#000000" stroke-linecap="round" stroke-linejoin="round" d="m10.541666666666668 5.75 -7.666666666666667 1.9166666666666667V4.791666666666667l3.8333333333333335 -1.9166666666666667 3.8333333333333335 1.9166666666666667V5.75Z" stroke-width="2"></path><path stroke="#000000" stroke-linecap="round" stroke-linejoin="round" d="M6.708333333333334 18.208333333333336v5.75" stroke-width="2"></path><path stroke="#000000" stroke-linecap="round" stroke-linejoin="round" d="M12.458333333333334 29.708333333333336h-11.5" stroke-width="2"></path><path stroke="#000000" stroke-linecap="round" stroke-linejoin="round" d="m0.9583333333333334 15.8125 5.75 -1.4375 16.291666666666668 1.9166666666666667 -10.541666666666668 5.75v23l-5.75 -11.5 -5.75 11.5v-23" stroke-width="2"></path><path stroke="#000000" stroke-linecap="round" stroke-linejoin="round" d="M29.708333333333336 45.04166666666667v-3.8333333333333335l-5.75 -1.9166666666666667 -5.75 1.9166666666666667v3.8333333333333335h11.5Z" stroke-width="2"></path><path stroke="#000000" stroke-linecap="round" stroke-linejoin="round" d="m27.791666666666668 35.458333333333336 -3.8333333333333335 1.9166666666666667 -3.8333333333333335 -1.9166666666666667V30.666666666666668l3.8333333333333335 -1.9166666666666667 3.8333333333333335 1.9166666666666667v4.791666666666667Z" stroke-width="2"></path><path stroke="#000000" stroke-linecap="round" stroke-linejoin="round" d="M45.04166666666667 45.04166666666667v-3.8333333333333335l-5.75 -1.9166666666666667 -5.75 1.9166666666666667v3.8333333333333335h11.5Z" stroke-width="2"></path><path stroke="#000000" stroke-linecap="round" stroke-linejoin="round" d="m43.125 35.458333333333336 -3.8333333333333335 1.9166666666666667 -3.8333333333333335 -1.9166666666666667V30.666666666666668l3.8333333333333335 -1.9166666666666667 3.8333333333333335 1.9166666666666667v4.791666666666667Z" stroke-width="2"></path></svg>