<svg xmlns="http://www.w3.org/2000/svg" fill="none" viewBox="-1 -1 48 48" id="Clipboard--Streamline-Cyber.svg" height="48" width="48"><desc>Clipboard Streamline Icon: https://streamlinehq.com</desc><path fill="#ffffffb3" d="M32.016000000000005 7.034166666666667L31.4525 5.155833333333334H26.756666666666668V1.3991666666666667H19.243333333333332V5.155833333333334H14.5475L13.984000000000002 7.034166666666667H4.216666666666667V44.600833333333334H41.78333333333334V7.034166666666667H32.016000000000005Z" stroke-width="2"></path><path fill="#000000d9" d="M30.513333333333335 37.087500000000006H7.973333333333334V40.844166666666666H30.513333333333335V37.087500000000006Z" stroke-width="2"></path><path fill="#000000d9" d="M12.669166666666667 12.669166666666667H33.33083333333334L31.4525 5.155833333333334H26.756666666666668L12.669166666666667 12.669166666666667Z" stroke-width="2"></path><path stroke="#000000" stroke-linecap="round" stroke-linejoin="round" stroke-miterlimit="10" d="M13.608333333333333 23L16.425833333333333 21.121666666666666L19.243333333333332 23L22.060833333333335 21.121666666666666L24.878333333333334 23L27.695833333333333 21.121666666666666L30.513333333333335 23L33.33083333333334 21.121666666666666" stroke-width="2"></path><path stroke="#000000" stroke-linecap="round" stroke-linejoin="round" stroke-miterlimit="10" d="M13.608333333333333 30.513333333333335L16.425833333333333 28.635L19.243333333333332 30.513333333333335L22.060833333333335 28.635L24.878333333333334 30.513333333333335L27.695833333333333 28.635" stroke-width="2"></path><path stroke="#000000" stroke-linecap="round" stroke-linejoin="round" stroke-miterlimit="10" d="M38.02666666666667 33.33083333333334H30.513333333333335V40.844166666666666" stroke-width="2"></path><path stroke="#000000" stroke-linecap="round" stroke-linejoin="round" stroke-miterlimit="10" d="M32.016000000000005 7.034166666666667H41.78333333333334V44.600833333333334H4.216666666666667V7.034166666666667H14.171833333333334" stroke-width="2"></path><path stroke="#000000" stroke-linecap="round" stroke-linejoin="round" stroke-miterlimit="10" d="M38.02666666666667 12.669166666666667V33.33083333333334L30.513333333333335 40.844166666666666H7.973333333333334V12.669166666666667" stroke-width="2"></path><path stroke="#000000" stroke-linecap="round" stroke-linejoin="round" stroke-miterlimit="10" d="M26.756666666666668 5.155833333333334V1.3991666666666667H19.243333333333332V5.155833333333334H14.5475L12.669166666666667 12.669166666666667H33.33083333333334L31.4525 5.155833333333334H26.756666666666668Z" stroke-width="2"></path></svg>