<svg xmlns="http://www.w3.org/2000/svg" fill="none" viewBox="-1 -1 48 48" id="Food-Service-Cart--Streamline-Cyber.svg" height="48" width="48"><desc>Food Service Cart Streamline Icon: https://streamlinehq.com</desc><path fill="#ffffffb3" d="M8.625 20.125h36.41666666666667V40.25l-3.8333333333333335 -2.875L36.41666666666667 40.25l-4.791666666666667 -2.875L26.833333333333336 40.25l-4.791666666666667 -2.875L17.25 40.25l-4.791666666666667 -2.875 -3.8333333333333335 2.875V20.125Z" stroke-width="2"></path><path fill="#ffffffb3" d="M16.291666666666668 16.291666666666668V9.2l11.5 -6.325 11.5 6.708333333333334v6.708333333333334" stroke-width="2"></path><path fill="#000000d9" d="M39.29166666666667 11.5h-23v4.791666666666667h23V11.5Z" stroke-width="2"></path><path fill="#000000d9" d="M12.458333333333334 20.125v-3.8333333333333335h30.666666666666668v3.8333333333333335" stroke-width="2"></path><path fill="#000000d9" d="m37.95 39.29166666666667 1.3416666666666666 0.9583333333333334v2.875l-2.875 1.9166666666666667 -2.875 -1.9166666666666667V40.25l1.3416666666666666 -0.9583333333333334" stroke-width="2"></path><path fill="#000000d9" d="m18.783333333333335 39.29166666666667 1.3416666666666666 0.9583333333333334v2.875l-2.875 1.9166666666666667 -2.875 -1.9166666666666667V40.25l1.3416666666666666 -0.9583333333333334" stroke-width="2"></path><path fill="#000000d9" d="m8.625 40.25 3.8333333333333335 -2.875L17.25 40.25l4.791666666666667 -2.875L26.833333333333336 40.25l4.791666666666667 -2.875L36.41666666666667 40.25l4.791666666666667 -2.875 3.8333333333333335 2.875v-15.333333333333334h-36.41666666666667v15.333333333333334Z" stroke-width="2"></path><path stroke="#000000" stroke-linecap="round" stroke-linejoin="round" stroke-miterlimit="10" d="M8.625 20.125h36.41666666666667V40.25l-3.8333333333333335 -2.875L36.41666666666667 40.25l-4.791666666666667 -2.875L26.833333333333336 40.25l-4.791666666666667 -2.875L17.25 40.25l-4.791666666666667 -2.875 -3.8333333333333335 2.875V20.125Z" stroke-width="2"></path><path stroke="#000000" stroke-linecap="round" stroke-linejoin="round" stroke-miterlimit="10" d="m8.625 20.125 -3.8333333333333335 -7.666666666666667h-3.8333333333333335" stroke-width="2"></path><path stroke="#000000" stroke-linecap="round" stroke-linejoin="round" stroke-miterlimit="10" d="M16.291666666666668 16.291666666666668V9.2l11.5 -6.325 11.5 6.708333333333334v6.708333333333334" stroke-width="2"></path><path stroke="#000000" stroke-linecap="round" stroke-linejoin="round" stroke-miterlimit="10" d="m37.95 39.29166666666667 1.3416666666666666 0.9583333333333334v2.875l-2.875 1.9166666666666667 -2.875 -1.9166666666666667V40.25l1.3416666666666666 -0.9583333333333334" stroke-width="2"></path><path stroke="#000000" stroke-linecap="round" stroke-linejoin="round" stroke-miterlimit="10" d="m18.783333333333335 39.29166666666667 1.3416666666666666 0.9583333333333334v2.875l-2.875 1.9166666666666667 -2.875 -1.9166666666666667V40.25l1.3416666666666666 -0.9583333333333334" stroke-width="2"></path><path stroke="#000000" stroke-linecap="round" stroke-linejoin="round" stroke-miterlimit="10" d="M27.791666666666668 2.875v-1.9166666666666667" stroke-width="2"></path><path stroke="#000000" stroke-linecap="round" stroke-linejoin="round" stroke-miterlimit="10" d="M12.458333333333334 20.125v-3.8333333333333335h30.666666666666668v3.8333333333333335" stroke-width="2"></path></svg>