<svg xmlns="http://www.w3.org/2000/svg" viewBox="0 0 32 32" fill="#000000" id="Inner-Shadow-Top--Streamline-Tabler-Filled.svg" height="32" width="32"><desc>Inner Shadow Top Streamline Icon: https://streamlinehq.com</desc><path d="M4.9124 4.9124C11.035599999999999 -1.2107999999999999 20.964399999999998 -1.2107999999999999 27.0876 4.9124C33.2108 11.035599999999999 33.2108 20.964399999999998 27.0876 27.0876C20.964399999999998 33.2108 11.035599999999999 33.2108 4.9124 27.0876C-1.2107999999999999 20.964399999999998 -1.2107999999999999 11.035599999999999 4.9124 4.9124ZM23.760266666666666 8.238266666666666C19.473866666666666 3.9522666666666666 12.524666666666665 3.9522666666666666 8.238133333333334 8.238266666666666C7.399466666666666 9.106399999999999 7.815066666666667 10.556799999999999 8.986266666666666 10.849066666666666C9.511066666666666 10.979999999999999 10.0664 10.831199999999999 10.455466666666666 10.455466666666666C13.517333333333333 7.392666666666667 18.482666666666667 7.392666666666667 21.544533333333334 10.455466666666666C22.412666666666667 11.294133333333331 23.8632 10.878533333333332 24.155466666666662 9.707333333333333C24.2864 9.182533333333332 24.1376 8.627199999999998 23.761733333333332 8.238266666666666Z" stroke-width="1"></path></svg>