<svg xmlns="http://www.w3.org/2000/svg" fill="none" viewBox="-1 -1 48 48" id="User-Chat-3--Streamline-Cyber.svg" height="48" width="48"><desc>User Chat 3 Streamline Icon: https://streamlinehq.com</desc><path fill="#ffffffb3" d="M45.04166666666667 5.558333333333334 34.5 0.9583333333333334l-10.541666666666668 4.6v9.966666666666667l7.666666666666667 3.066666666666667v5.366666666666666l13.416666666666668 -7.666666666666667V5.558333333333334Z" stroke-width="2"></path><path fill="#ffffffb3" d="m22.041666666666668 28.75 -7.666666666666667 2.875 -7.666666666666667 -2.875V18.208333333333336l7.666666666666667 -2.875 7.666666666666667 2.875V28.75Z" stroke-width="2"></path><path fill="#ffffffb3" d="M27.791666666666668 45.04166666666667V36.41666666666667l-13.416666666666668 -2.875 -13.416666666666668 2.875v8.625" stroke-width="2"></path><path fill="#000000d9" d="m44.75991666666667 16.4526475 -2.0029166666666667 -2.0048333333333335L34.5 19.1666475v-2.4916666666666667l-8.092166666666667 -3.2372500000000004 -2.19075 2.19075 7.407916666666667 2.963166666666667V23.958333333333336l13.134916666666667 -7.505685833333334Z" stroke-width="2"></path><path fill="#000000d9" d="M22.041666666666668 22.041666666666668H13.416666666666668l-6.708333333333334 -3.8333333333333335 7.666666666666667 -2.875 7.666666666666667 2.875v3.8333333333333335Z" stroke-width="2"></path><path stroke="#000000" stroke-linecap="round" stroke-linejoin="round" d="M27.791666666666668 8.625h13.416666666666668" stroke-width="2"></path><path stroke="#000000" stroke-linecap="round" stroke-linejoin="round" d="M27.791666666666668 12.458333333333334h9.583333333333334" stroke-width="2"></path><path stroke="#000000" stroke-linecap="round" stroke-linejoin="round" d="M45.04166666666667 5.558333333333334 34.5 0.9583333333333334l-10.541666666666668 4.6v9.966666666666667l7.666666666666667 3.066666666666667v5.366666666666666l13.416666666666668 -7.666666666666667V5.558333333333334Z" stroke-width="2"></path><path stroke="#000000" stroke-linecap="round" stroke-linejoin="round" d="m22.041666666666668 28.75 -7.666666666666667 2.875 -7.666666666666667 -2.875V18.208333333333336l7.666666666666667 -2.875 7.666666666666667 2.875V28.75Z" stroke-width="2"></path><path stroke="#000000" stroke-linecap="round" stroke-linejoin="round" d="M27.791666666666668 45.04166666666667V36.41666666666667l-13.416666666666668 -2.875 -13.416666666666668 2.875v8.625" stroke-width="2"></path><path stroke="#000000" stroke-linecap="round" stroke-linejoin="round" d="M14.375 37.375v7.666666666666667" stroke-width="2"></path><path stroke="#000000" stroke-linecap="round" stroke-linejoin="round" d="M22.041666666666668 22.041666666666668H13.416666666666668l-6.708333333333334 -3.8333333333333335 7.666666666666667 -2.875 7.666666666666667 2.875v3.8333333333333335Z" stroke-width="2"></path><path stroke="#000000d9" stroke-linecap="round" stroke-linejoin="round" d="M19.166666666666668 43.125h3.8333333333333335" stroke-width="2"></path></svg>