<svg xmlns="http://www.w3.org/2000/svg" viewBox="0 0 48 48" id="Programming-Language-Monitor-Html--Streamline-Ultimate.svg" height="48" width="48"><desc>Programming Language Monitor Html Streamline Icon: https://streamlinehq.com</desc><g><path d="M2 11.84a2 2 0 0 0 2 -2V6a1.1 1.1 0 0 1 1 -1.18h38A1.1 1.1 0 0 1 44 6v3.84a2 2 0 1 0 4 0V6A5.1 5.1 0 0 0 43 0.84h-38A5.1 5.1 0 0 0 0 6v3.84a2 2 0 0 0 2 2Z" fill="#000000" stroke-width="1"></path><path d="M38 47.16a2 2 0 0 0 0 -4h-12.5a0.5 0.5 0 0 1 -0.5 -0.5v-2.32a0.5 0.5 0 0 1 0.5 -0.5H42a6 6 0 0 0 6 -6v-6a2 2 0 0 0 -4 0v2a1 1 0 0 1 -1 1h-38a1 1 0 0 1 -1 -1v-3a2 2 0 0 0 -4 0v7a6 6 0 0 0 6 6h14.5a0.5 0.5 0 0 1 0.5 0.5v2.32a0.5 0.5 0 0 1 -0.5 0.5H10a2 2 0 0 0 0 4Z" fill="#000000" stroke-width="1"></path><path d="M19 24.34a1.52 1.52 0 0 0 1.5 -1.5v-8a0.5 0.5 0 0 1 0.5 -0.5 1.5 1.5 0 0 0 0 -3h-4a1.5 1.5 0 0 0 0 3 0.5 0.5 0 0 1 0.5 0.5v8a1.52 1.52 0 0 0 1.5 1.5Z" fill="#000000" stroke-width="1"></path><path d="M12.5 12.84a1.5 1.5 0 0 0 -3 0v4a0.5 0.5 0 0 1 -0.5 0.5H8a0.5 0.5 0 0 1 -0.5 -0.5v-4a1.5 1.5 0 0 0 -3 0v10a1.5 1.5 0 0 0 3 0v-2a0.5 0.5 0 0 1 0.5 -0.5h1a0.5 0.5 0 0 1 0.5 0.5v2a1.5 1.5 0 1 0 3 0Z" fill="#000000" stroke-width="1"></path><path d="M39 11.34a1.5 1.5 0 0 0 -1.5 1.5v8a3.52 3.52 0 0 0 3.5 3.5h2a1.5 1.5 0 0 0 0 -3h-2a0.5 0.5 0 0 1 -0.5 -0.5v-8a1.5 1.5 0 0 0 -1.5 -1.5Z" fill="#000000" stroke-width="1"></path><path d="M33 24.34a1.52 1.52 0 0 0 1.5 -1.5v-10A1.5 1.5 0 0 0 31.72 12l-1.3 2.2a0.48 0.48 0 0 1 -0.84 0L28.28 12a1.5 1.5 0 0 0 -2.78 0.78v10a1.5 1.5 0 1 0 3 0V18.66l0 -0.1a0.12 0.12 0 0 1 0.14 0 1.56 1.56 0 0 0 2.56 0 0.12 0.12 0 0 1 0.14 0s0 0 0 0.1v4.18a1.52 1.52 0 0 0 1.66 1.5Z" fill="#000000" stroke-width="1"></path></g></svg>